<svg width="34" height="34" viewBox="0 0 34 34" fill="none" xmlns="http://www.w3.org/2000/svg">
<path opacity="0.2" d="M32.6702 21.3058C31.866 23.9499 30.3908 26.3407 28.3881 28.2453C26.3855 30.1498 23.9238 31.5033 21.2427 32.1738C18.5616 32.8444 15.7526 32.8092 13.0891 32.0716C10.4257 31.334 7.99869 29.9192 6.04447 27.965C4.09026 26.0108 2.67546 23.5837 1.93787 20.9203C1.20028 18.2569 1.16504 15.4478 1.83559 12.7667C2.50614 10.0856 3.85961 7.62391 5.76418 5.62129C7.66876 3.61867 10.0595 2.14343 12.7036 1.33926C11.8653 4.11316 11.7951 7.06252 12.5007 9.87312C13.2062 12.6837 14.661 15.2503 16.7101 17.2993C18.7592 19.3484 21.3257 20.8032 24.1363 21.5088C26.9469 22.2143 29.8963 22.1442 32.6702 21.3058Z" fill="black"/>
<path d="M33.6118 20.3623C33.4407 20.1909 33.2262 20.0693 32.9913 20.0106C32.7563 19.9519 32.5098 19.9582 32.2782 20.029C29.7354 20.7977 27.0317 20.8621 24.4552 20.2155C21.8786 19.5688 19.5258 18.2352 17.6474 16.3568C15.769 14.4784 14.4354 12.1256 13.7888 9.54903C13.1421 6.9725 13.2065 4.26878 13.9752 1.72599C14.0466 1.49429 14.0534 1.24752 13.995 1.01223C13.9366 0.776934 13.8151 0.562016 13.6437 0.390588C13.4723 0.219159 13.2574 0.0977063 13.0221 0.0392906C12.7868 -0.0191251 12.54 -0.0122933 12.3083 0.0590511C8.79278 1.13597 5.70646 3.29423 3.48854 6.22672C1.54892 8.8019 0.365792 11.8669 0.0720951 15.0774C-0.221602 18.288 0.385762 21.5168 1.82595 24.4011C3.26614 27.2855 5.4821 29.7111 8.22486 31.4055C10.9676 33.0999 14.1285 33.9959 17.3525 33.9929C21.1136 34.0045 24.7748 32.7818 27.7742 30.5123C30.7066 28.2944 32.8649 25.2081 33.9418 21.6926C34.0123 21.4617 34.0189 21.2161 33.9608 20.9818C33.9026 20.7475 33.782 20.5334 33.6118 20.3623ZM26.1706 28.382C23.346 30.5094 19.848 31.545 16.3205 31.298C12.7931 31.051 9.47352 29.5381 6.97301 27.0378C4.47249 24.5374 2.95932 21.218 2.71203 17.6906C2.46475 14.1631 3.50001 10.665 5.62722 7.84031C7.01312 6.01012 8.80485 4.52652 10.8614 3.50628C10.7442 4.32845 10.6852 5.15787 10.6847 5.98835C10.6896 10.5847 12.5176 14.9914 15.7677 18.2415C19.0178 21.4916 23.4245 23.3196 28.0209 23.3245C28.853 23.3242 29.6841 23.2652 30.5079 23.1478C29.4867 25.2047 28.002 26.9965 26.1706 28.382Z" fill="black"/>
</svg>
