<svg width="41" height="40" viewBox="0 0 41 40" fill="none" xmlns="http://www.w3.org/2000/svg">
<path opacity="0.2" d="M29.3597 19.875C29.3597 21.7095 28.8118 23.5027 27.7854 25.028C26.7589 26.5532 25.2999 27.742 23.5929 28.444C21.8859 29.146 20.0076 29.3297 18.1955 28.9718C16.3834 28.6139 14.7189 27.7306 13.4124 26.4335C12.1059 25.1363 11.2162 23.4837 10.8558 21.6845C10.4953 19.8853 10.6803 18.0204 11.3874 16.3256C12.0944 14.6309 13.2918 13.1823 14.828 12.1632C16.3643 11.144 18.1704 10.6 20.018 10.6C22.4956 10.6 24.8717 11.5772 26.6236 13.3166C28.3755 15.056 29.3597 17.4152 29.3597 19.875Z" fill="white"/>
<path d="M18.6835 5.3V1.325C18.6835 0.973588 18.8241 0.636569 19.0743 0.388083C19.3246 0.139598 19.664 0 20.018 0C20.3719 0 20.7114 0.139598 20.9616 0.388083C21.2119 0.636569 21.3525 0.973588 21.3525 1.325V5.3C21.3525 5.65141 21.2119 5.98843 20.9616 6.23692C20.7114 6.4854 20.3719 6.625 20.018 6.625C19.664 6.625 19.3246 6.4854 19.0743 6.23692C18.8241 5.98843 18.6835 5.65141 18.6835 5.3ZM30.6942 19.875C30.6942 21.9715 30.0681 24.0209 28.895 25.764C27.7218 27.5072 26.0544 28.8658 24.1036 29.6681C22.1528 30.4704 20.0061 30.6803 17.9352 30.2713C15.8642 29.8623 13.9618 28.8528 12.4687 27.3703C10.9756 25.8879 9.95881 23.9992 9.54687 21.943C9.13492 19.8868 9.34635 17.7555 10.1544 15.8186C10.9625 13.8817 12.3309 12.2262 14.0866 11.0614C15.8423 9.89668 17.9064 9.275 20.018 9.275C22.8486 9.27807 25.5623 10.3958 27.5638 12.3831C29.5653 14.3703 30.6912 17.0646 30.6942 19.875ZM28.0252 19.875C28.0252 18.3026 27.5556 16.7656 26.6757 15.4582C25.7959 14.1508 24.5453 13.1319 23.0822 12.5302C21.6191 11.9284 20.0091 11.771 18.4559 12.0778C16.9026 12.3845 15.4759 13.1417 14.356 14.2535C13.2362 15.3653 12.4736 16.7819 12.1646 18.324C11.8557 19.8662 12.0143 21.4647 12.6203 22.9173C13.2263 24.37 14.2527 25.6116 15.5694 26.4852C16.8862 27.3587 18.4343 27.825 20.018 27.825C22.1409 27.8228 24.1763 26.9845 25.6775 25.4941C27.1787 24.0036 28.023 21.9828 28.0252 19.875ZM8.39755 10.2124C8.64796 10.4611 8.98759 10.6007 9.34173 10.6007C9.69586 10.6007 10.0355 10.4611 10.2859 10.2124C10.5363 9.96381 10.677 9.62661 10.677 9.275C10.677 8.92339 10.5363 8.58619 10.2859 8.33756L7.61684 5.68756C7.36643 5.43894 7.0268 5.29926 6.67266 5.29926C6.31853 5.29926 5.97889 5.43894 5.72848 5.68756C5.47807 5.93619 5.33739 6.27339 5.33739 6.625C5.33739 6.97661 5.47807 7.31381 5.72848 7.56244L8.39755 10.2124ZM8.39755 29.5376L5.72848 32.1876C5.47807 32.4362 5.33739 32.7734 5.33739 33.125C5.33739 33.4766 5.47807 33.8138 5.72848 34.0624C5.97889 34.3111 6.31853 34.4507 6.67266 34.4507C7.0268 34.4507 7.36643 34.3111 7.61684 34.0624L10.2859 31.4124C10.4099 31.2893 10.5083 31.1432 10.5754 30.9823C10.6425 30.8215 10.677 30.6491 10.677 30.475C10.677 30.3009 10.6425 30.1285 10.5754 29.9677C10.5083 29.8068 10.4099 29.6607 10.2859 29.5376C10.1619 29.4145 10.0147 29.3168 9.85271 29.2502C9.69071 29.1836 9.51708 29.1493 9.34173 29.1493C9.16638 29.1493 8.99274 29.1836 8.83074 29.2502C8.66874 29.3168 8.52154 29.4145 8.39755 29.5376ZM30.6942 10.6C30.8695 10.6001 31.0432 10.566 31.2052 10.4995C31.3672 10.433 31.5144 10.3354 31.6384 10.2124L34.3075 7.56244C34.5579 7.31381 34.6986 6.97661 34.6986 6.625C34.6986 6.27339 34.5579 5.93619 34.3075 5.68756C34.0571 5.43894 33.7174 5.29926 33.3633 5.29926C33.0092 5.29926 32.6695 5.43894 32.4191 5.68756L29.7501 8.33756C29.5632 8.52287 29.4359 8.75906 29.3844 9.01622C29.3328 9.27338 29.3592 9.53996 29.4603 9.7822C29.5614 10.0244 29.7326 10.2315 29.9523 10.377C30.1719 10.5226 30.4301 10.6002 30.6942 10.6ZM31.6384 29.5376C31.388 29.2889 31.0484 29.1493 30.6942 29.1493C30.3401 29.1493 30.0005 29.2889 29.7501 29.5376C29.4996 29.7862 29.359 30.1234 29.359 30.475C29.359 30.8266 29.4996 31.1638 29.7501 31.4124L32.4191 34.0624C32.5431 34.1855 32.6903 34.2832 32.8523 34.3498C33.0143 34.4164 33.188 34.4507 33.3633 34.4507C33.5387 34.4507 33.7123 34.4164 33.8743 34.3498C34.0363 34.2832 34.1835 34.1855 34.3075 34.0624C34.4315 33.9393 34.5298 33.7932 34.5969 33.6323C34.664 33.4715 34.6986 33.2991 34.6986 33.125C34.6986 32.9509 34.664 32.7785 34.5969 32.6177C34.5298 32.4568 34.4315 32.3107 34.3075 32.1876L31.6384 29.5376ZM6.67266 19.875C6.67266 19.5236 6.53206 19.1866 6.28179 18.9381C6.03151 18.6896 5.69207 18.55 5.33813 18.55H1.33453C0.980592 18.55 0.641149 18.6896 0.390875 18.9381C0.140602 19.1866 0 19.5236 0 19.875C0 20.2264 0.140602 20.5634 0.390875 20.8119C0.641149 21.0604 0.980592 21.2 1.33453 21.2H5.33813C5.69207 21.2 6.03151 21.0604 6.28179 20.8119C6.53206 20.5634 6.67266 20.2264 6.67266 19.875ZM20.018 33.125C19.664 33.125 19.3246 33.2646 19.0743 33.5131C18.8241 33.7616 18.6835 34.0986 18.6835 34.45V38.425C18.6835 38.7764 18.8241 39.1134 19.0743 39.3619C19.3246 39.6104 19.664 39.75 20.018 39.75C20.3719 39.75 20.7114 39.6104 20.9616 39.3619C21.2119 39.1134 21.3525 38.7764 21.3525 38.425V34.45C21.3525 34.0986 21.2119 33.7616 20.9616 33.5131C20.7114 33.2646 20.3719 33.125 20.018 33.125ZM38.7014 18.55H34.6978C34.3439 18.55 34.0045 18.6896 33.7542 18.9381C33.5039 19.1866 33.3633 19.5236 33.3633 19.875C33.3633 20.2264 33.5039 20.5634 33.7542 20.8119C34.0045 21.0604 34.3439 21.2 34.6978 21.2H38.7014C39.0554 21.2 39.3948 21.0604 39.6451 20.8119C39.8954 20.5634 40.036 20.2264 40.036 19.875C40.036 19.5236 39.8954 19.1866 39.6451 18.9381C39.3948 18.6896 39.0554 18.55 38.7014 18.55Z" fill="white"/>
</svg>
