<svg width="46" height="46" viewBox="0 0 46 46" fill="none" xmlns="http://www.w3.org/2000/svg">
<path d="M9.644 33.5L8.153 34.991C7.76187 35.3845 7.54234 35.9167 7.54234 36.4715C7.54234 37.0263 7.76187 37.5585 8.153 37.952C8.54646 38.3431 9.07871 38.5627 9.6335 38.5627C10.1883 38.5627 10.7205 38.3431 11.114 37.952L12.605 36.461C12.949 36.0593 13.1288 35.5425 13.1084 35.014C13.088 34.4855 12.8689 33.9841 12.4949 33.6101C12.1209 33.2361 11.6195 33.017 11.091 32.9966C10.5625 32.9762 10.0457 33.156 9.644 33.5ZM8.3 23C8.3 22.443 8.07875 21.9089 7.68492 21.5151C7.2911 21.1212 6.75695 20.9 6.2 20.9H4.1C3.54305 20.9 3.0089 21.1212 2.61508 21.5151C2.22125 21.9089 2 22.443 2 23C2 23.557 2.22125 24.0911 2.61508 24.4849C3.0089 24.8787 3.54305 25.1 4.1 25.1H6.2C6.75695 25.1 7.2911 24.8787 7.68492 24.4849C8.07875 24.0911 8.3 23.557 8.3 23ZM23 8.3C23.557 8.3 24.0911 8.07875 24.4849 7.68492C24.8787 7.2911 25.1 6.75695 25.1 6.2V4.1C25.1 3.54305 24.8787 3.0089 24.4849 2.61508C24.0911 2.22125 23.557 2 23 2C22.443 2 21.9089 2.22125 21.5151 2.61508C21.1212 3.0089 20.9 3.54305 20.9 4.1V6.2C20.9 6.75695 21.1212 7.2911 21.5151 7.68492C21.9089 8.07875 22.443 8.3 23 8.3ZM9.644 12.605C10.0351 12.993 10.5631 13.2117 11.114 13.214C11.3904 13.2156 11.6643 13.1626 11.9202 13.0581C12.1761 12.9536 12.4088 12.7996 12.605 12.605C12.9961 12.2115 13.2157 11.6793 13.2157 11.1245C13.2157 10.5697 12.9961 10.0375 12.605 9.644L11.114 8.153C10.7123 7.80896 10.1955 7.62919 9.66699 7.64961C9.13847 7.67002 8.63712 7.88912 8.26312 8.26312C7.88912 8.63712 7.67002 9.13847 7.64961 9.66699C7.62919 10.1955 7.80896 10.7123 8.153 11.114L9.644 12.605ZM34.844 13.214C35.3949 13.2117 35.9229 12.993 36.314 12.605L37.805 11.114C38.0248 10.9257 38.2034 10.6941 38.3294 10.4335C38.4555 10.173 38.5263 9.88922 38.5375 9.60001C38.5486 9.3108 38.4999 9.0224 38.3943 8.75292C38.2888 8.48344 38.1286 8.23869 37.924 8.03403C37.7193 7.82938 37.4746 7.66924 37.2051 7.56366C36.9356 7.45808 36.6472 7.40935 36.358 7.42052C36.0688 7.43169 35.785 7.50253 35.5245 7.62858C35.2639 7.75463 35.0323 7.93317 34.844 8.153L33.5 9.644C33.1089 10.0375 32.8893 10.5697 32.8893 11.1245C32.8893 11.6793 33.1089 12.2115 33.5 12.605C33.8702 12.9733 34.3644 13.1904 34.886 13.214H34.844ZM41.9 20.9H39.8C39.243 20.9 38.7089 21.1212 38.3151 21.5151C37.9212 21.9089 37.7 22.443 37.7 23C37.7 23.557 37.9212 24.0911 38.3151 24.4849C38.7089 24.8787 39.243 25.1 39.8 25.1H41.9C42.457 25.1 42.9911 24.8787 43.3849 24.4849C43.7788 24.0911 44 23.557 44 23C44 22.443 43.7788 21.9089 43.3849 21.5151C42.9911 21.1212 42.457 20.9 41.9 20.9ZM23 37.7C22.443 37.7 21.9089 37.9212 21.5151 38.3151C21.1212 38.7089 20.9 39.243 20.9 39.8V41.9C20.9 42.457 21.1212 42.9911 21.5151 43.3849C21.9089 43.7788 22.443 44 23 44C23.557 44 24.0911 43.7788 24.4849 43.3849C24.8787 42.9911 25.1 42.457 25.1 41.9V39.8C25.1 39.243 24.8787 38.7089 24.4849 38.3151C24.0911 37.9212 23.557 37.7 23 37.7ZM36.356 33.5C35.957 33.2781 35.4966 33.1922 35.0445 33.2554C34.5923 33.3186 34.1731 33.5275 33.8503 33.8503C33.5275 34.1731 33.3186 34.5923 33.2554 35.0445C33.1922 35.4966 33.2781 35.957 33.5 36.356L34.991 37.847C35.3845 38.2381 35.9167 38.4577 36.4715 38.4577C37.0263 38.4577 37.5585 38.2381 37.952 37.847C38.3431 37.4535 38.5627 36.9213 38.5627 36.3665C38.5627 35.8117 38.3431 35.2795 37.952 34.886L36.356 33.5ZM23 11.45C20.7156 11.45 18.4826 12.1274 16.5832 13.3965C14.6838 14.6657 13.2034 16.4695 12.3292 18.58C11.455 20.6905 11.2263 23.0128 11.6719 25.2533C12.1176 27.4938 13.2176 29.5518 14.8329 31.1671C16.4482 32.7824 18.5062 33.8824 20.7467 34.3281C22.9872 34.7737 25.3095 34.545 27.42 33.6708C29.5305 32.7966 31.3343 31.3162 32.6035 29.4168C33.8726 27.5174 34.55 25.2844 34.55 23C34.5444 19.9385 33.3258 17.0039 31.161 14.839C28.9961 12.6742 26.0615 11.4556 23 11.45ZM23 30.35C21.5463 30.35 20.1253 29.9189 18.9166 29.1113C17.7079 28.3037 16.7658 27.1558 16.2095 25.8127C15.6532 24.4697 15.5076 22.9918 15.7912 21.5661C16.0748 20.1403 16.7748 18.8307 17.8028 17.8028C18.8307 16.7748 20.1403 16.0748 21.5661 15.7912C22.9918 15.5076 24.4697 15.6532 25.8127 16.2095C27.1558 16.7658 28.3037 17.7079 29.1113 18.9166C29.9189 20.1253 30.35 21.5463 30.35 23C30.35 24.9493 29.5756 26.8188 28.1972 28.1972C26.8188 29.5756 24.9493 30.35 23 30.35Z" fill="black"/>
</svg>
